<svg id="BASE" xmlns="http://www.w3.org/2000/svg" viewBox="0 0 250.25 286.45"><defs><style>.cls-1{fill:#ff2929;}</style></defs><path class="cls-1" d="M351,249c6-97-34-134-34-134-26,7-50,72-50,72-23-10-59-2-59-2-19-56-46.61-70-46.61-70C120.77,153,127,248,127,248c-10.6,10.6-13.22,39.8-13.83,50.24a14.25,14.25,0,0,0,1.48,7.14c50,100.52,124.35,96,124.35,96,73-3.23,115.09-79.68,122.73-94.83a14.36,14.36,0,0,0,1.5-5.59C365.07,270.57,351,249,351,249ZM193,296s-16.24,1.91-10.91-39.54a42.21,42.21,0,0,1,1.4-6.57c1.8-6,5.86-17.13,11-16.39,0,0,8-2,9,36C203.5,269.5,205,293,193,296Zm71,0s-16.24,1.91-10.91-39.54a42.21,42.21,0,0,1,1.4-6.57c1.8-6,5.86-17.13,11-16.39,0,0,8-2,9,36C274.5,269.5,276,293,264,296Z" transform="translate(-113.15 -115)"/></svg>