<svg id="BASE" xmlns="http://www.w3.org/2000/svg" viewBox="0 0 445.96 509.47"><defs><style>.cls-1{fill:#fff;stroke:#000;stroke-miterlimit:10;stroke-width:25px;}</style></defs><path class="cls-1" d="M439.63,234.48C449.72,71.31,382.43,9.07,382.43,9.07c-43.73,11.78-84.11,121.12-84.11,121.12-38.69-16.82-99.24-3.37-99.24-3.37-32-94.2-78.42-117.75-78.42-117.75C52.35,73,62.82,232.8,62.82,232.8c-17.83,17.83-22.24,67-23.26,84.51a23.8,23.8,0,0,0,2.49,12c84.11,169.1,209.17,161.56,209.17,161.56,122.74-5.43,193.61-134,206.47-159.52A23.9,23.9,0,0,0,460.2,322C463.29,270.77,439.63,234.48,439.63,234.48ZM173.84,313.54s-27.31,3.22-18.34-66.5A69.65,69.65,0,0,1,157.85,236c3-10,9.86-28.8,18.52-27.56,0,0,13.45-3.37,15.14,60.56C191.51,269,194,308.5,173.84,313.54Zm119.44,0S266,316.76,274.93,247A68.59,68.59,0,0,1,277.29,236c3-10,9.85-28.8,18.51-27.56,0,0,13.46-3.37,15.14,60.56C310.94,269,313.46,308.5,293.28,313.54Z" transform="translate(-27.02 6.04)"/></svg>